# xmcd
# Copyright (C) 1995-1998 Ti Kan
#
# Track frame offsets:
#       150
#       15825
#       31996
#       51125
#       72867
#       88672
#       103425
#       120887
#       143825
#       161390
#       177884
#       202078
#       219783
#       235137
#       254462
#       269759
#       285726
#       300414
#
# Disc length: 4221 seconds
#
# Revision: 17
# Processed by: cddbd v1.5.1PL0 Copyright (c) Steve Scherf et al.
# Submitted via: CD-Transfer v1.0
#
DISCID=f7107b12
DTITLE=Bebe - Euro Express 580
DYEAR=04
DGENRE=
TTITLE0=Cielo (Radio Edit)
TTITLE1=Irte
TTITLE2=Verte Sonrier
TTITLE3=Rubio De La Cuarta Fila
TTITLE4=Sobrevivir Sin Amor
TTITLE5=Nada Valgo Sin Tu Amor
TTITLE6=Mami Ven Agui
TTITLE7=Enamorarme (Dance Remix)
TTITLE8=Desde Brasil
TTITLE9=Tu Carcel
TTITLE10=Memoria
TTITLE11=Les Queremos
TTITLE12=Rockton
TTITLE13=Esperando El Milagro
TTITLE14=Los Restos Del Naufragio
TTITLE15=Una Foto En Blanco
TTITLE16=Despertar
TTITLE17=Ella
EXTD=
EXTT0=
EXTT1=
EXTT2=
EXTT3=
EXTT4=
EXTT5=
EXTT6=
EXTT7=
EXTT8=
EXTT9=
EXTT10=
EXTT11=
EXTT12=
EXTT13=
EXTT14=
EXTT15=
EXTT16=
EXTT17=
PLAYORDER=
